<?xml version="1.0" standalone="no"?>
<!DOCTYPE svg PUBLIC "-//W3C//DTD SVG 20010904//EN"
 "http://www.w3.org/TR/2001/REC-SVG-20010904/DTD/svg10.dtd">
<svg version="1.0" xmlns="http://www.w3.org/2000/svg"
 width="1194.000000pt" height="1280.000000pt" viewBox="0 0 1194.000000 1280.000000"
 preserveAspectRatio="xMidYMid meet">
<metadata>
Created by potrace 1.15, written by Peter Selinger 2001-2017
</metadata>
<g transform="translate(0.000000,1280.000000) scale(0.100000,-0.100000)"
fill="#000000" stroke="none">
<path d="M780 12794 c-277 -15 -467 -28 -595 -40 -82 -8 -158 -14 -167 -14
-17 0 -18 -63 -18 -1181 l0 -1181 32 6 c53 9 379 44 548 58 206 17 962 17
1170 0 669 -56 1192 -149 1765 -316 3024 -879 5315 -3380 5924 -6466 65 -331
112 -682 143 -1080 16 -207 16 -910 0 -1120 -37 -477 -97 -887 -187 -1287 -19
-84 -35 -157 -35 -163 0 -7 390 -10 1194 -10 l1193 0 6 32 c142 822 181 1251
181 1993 0 575 -18 864 -85 1390 -298 2340 -1381 4537 -3064 6220 -524 523
-1032 940 -1645 1350 -854 572 -1784 1018 -2745 1319 -826 258 -1609 405
-2505 471 -190 14 -958 27 -1110 19z"/>
<path d="M435 7563 c-157 -13 -282 -25 -352 -35 l-83 -11 0 -899 c0 -852 1
-899 18 -894 9 3 55 12 102 20 729 130 1440 56 2150 -225 759 -300 1428 -831
1869 -1484 321 -475 508 -951 594 -1508 19 -129 21 -181 22 -567 0 -524 -19
-758 -90 -1086 -63 -295 -188 -613 -321 -821 l-34 -53 994 0 994 0 32 88 c104
287 164 614 191 1047 17 274 7 1290 -14 1465 -25 198 -45 327 -78 490 -307
1501 -1285 2839 -2681 3668 -771 458 -1641 733 -2537 802 -122 9 -676 12 -776
3z"/>
<path d="M1335 3075 c-244 -33 -489 -130 -688 -272 -102 -73 -267 -235 -340
-333 -386 -524 -408 -1232 -54 -1768 125 -189 260 -324 449 -449 165 -109 338
-180 548 -224 153 -33 428 -33 587 -1 624 126 1088 587 1225 1216 32 147 32
455 0 602 -56 260 -164 487 -323 679 -341 414 -875 623 -1404 550z"/>
</g>
</svg>
